# xmcd
#
# Track frame offsets: 
#        150
#        1697
#        21491
#        39784
#        54342
#        72678
#        96032
#        125597
#        155360
#        176771
#        197184
#        215510
#        231752
#        254247
#        268923
#        289520
#        308389
#
# Disc length: 4386 seconds
#
# Revision: 5
# Processed by: cddbd v1.5.2PL0 Copyright (c) Steve Scherf et al.
# Submitted via: ExactAudioCopyFreeDBPlugin 1.0
#
DISCID=f1112011
DTITLE=Lady Pank - Koncertowa
DYEAR=1999
DGENRE=Rock
TTITLE0=Wstęp
TTITLE1=Zamki na piasku
TTITLE2=Kryzysowa narzeczona
TTITLE3=Vademecum skauta
TTITLE4=Fabryka małp
TTITLE5=Sztuka latania
TTITLE6=Marchewkowe pole
TTITLE7=Zawsze tam gdzie ty
TTITLE8=Zostawcie Titanica
TTITLE9=Mała wojna
TTITLE10=Du Du
TTITLE11=Mniej niż zero
TTITLE12=Znowu pada deszcz
TTITLE13=Tańcz głupia tańcz
TTITLE14=Ohyda!
TTITLE15=Rozmowa z...
TTITLE16=Do Moniki L.
EXTD=YEAR: 1999
EXTT0=
EXTT1=
EXTT2=
EXTT3=
EXTT4=
EXTT5=
EXTT6=
EXTT7=
EXTT8=
EXTT9=
EXTT10=
EXTT11=
EXTT12=
EXTT13=
EXTT14=
EXTT15=
EXTT16=
PLAYORDER=
